<mxfile host="app.diagrams.net" modified="2021-12-01T02:01:00.992Z" agent="5.0 (Windows NT 10.0; Win64; x64) AppleWebKit/537.36 (KHTML, like Gecko) Chrome/96.0.4664.45 Safari/537.36" etag="Er7NkFZF5qwXOoytaKie" version="15.8.7" type="github">
  <diagram id="sX8kAQKrLiFmeek9PeK2" name="第 1 页">
    <mxGraphModel dx="1846" dy="614" grid="1" gridSize="10" guides="1" tooltips="1" connect="1" arrows="1" fold="1" page="1" pageScale="1" pageWidth="827" pageHeight="1169" math="0" shadow="0">
      <root>
        <mxCell id="0" />
        <mxCell id="1" parent="0" />
        <mxCell id="QMcq5MqNsXWsQAmR-mkq-1" value="Cache行/块" style="text;html=1;strokeColor=none;fillColor=none;align=center;verticalAlign=middle;whiteSpace=wrap;rounded=0;fontSize=18;fontStyle=1" vertex="1" parent="1">
          <mxGeometry x="70" y="300" width="110" height="30" as="geometry" />
        </mxCell>
        <mxCell id="QMcq5MqNsXWsQAmR-mkq-2" value="Tag" style="text;html=1;strokeColor=none;fillColor=none;align=center;verticalAlign=middle;whiteSpace=wrap;rounded=0;fontSize=18;fontStyle=1" vertex="1" parent="1">
          <mxGeometry x="290" y="300" width="110" height="30" as="geometry" />
        </mxCell>
        <mxCell id="QMcq5MqNsXWsQAmR-mkq-3" value="Valid" style="text;html=1;strokeColor=none;fillColor=none;align=center;verticalAlign=middle;whiteSpace=wrap;rounded=0;fontSize=18;fontStyle=1" vertex="1" parent="1">
          <mxGeometry x="470" y="300" width="110" height="30" as="geometry" />
        </mxCell>
        <mxCell id="QMcq5MqNsXWsQAmR-mkq-4" value="替换信息" style="text;html=1;strokeColor=none;fillColor=none;align=center;verticalAlign=middle;whiteSpace=wrap;rounded=0;fontSize=18;fontStyle=1" vertex="1" parent="1">
          <mxGeometry x="640" y="300" width="110" height="30" as="geometry" />
        </mxCell>
        <mxCell id="QMcq5MqNsXWsQAmR-mkq-5" value="行号/块号" style="text;html=1;strokeColor=none;fillColor=none;align=center;verticalAlign=middle;whiteSpace=wrap;rounded=0;fontSize=18;fontStyle=1" vertex="1" parent="1">
          <mxGeometry x="290" y="440" width="110" height="30" as="geometry" />
        </mxCell>
        <mxCell id="QMcq5MqNsXWsQAmR-mkq-6" value="组号" style="text;html=1;strokeColor=none;fillColor=none;align=center;verticalAlign=middle;whiteSpace=wrap;rounded=0;fontSize=18;fontStyle=1" vertex="1" parent="1">
          <mxGeometry x="470" y="440" width="110" height="30" as="geometry" />
        </mxCell>
        <mxCell id="QMcq5MqNsXWsQAmR-mkq-7" value="块数据" style="text;html=1;strokeColor=none;fillColor=none;align=center;verticalAlign=middle;whiteSpace=wrap;rounded=0;fontSize=18;fontStyle=1" vertex="1" parent="1">
          <mxGeometry x="640" y="440" width="110" height="30" as="geometry" />
        </mxCell>
        <mxCell id="QMcq5MqNsXWsQAmR-mkq-8" value="脏位" style="text;html=1;strokeColor=none;fillColor=none;align=center;verticalAlign=middle;whiteSpace=wrap;rounded=0;fontSize=18;fontStyle=1" vertex="1" parent="1">
          <mxGeometry x="810" y="300" width="110" height="30" as="geometry" />
        </mxCell>
        <mxCell id="QMcq5MqNsXWsQAmR-mkq-9" value="块内地址" style="text;html=1;strokeColor=none;fillColor=none;align=center;verticalAlign=middle;whiteSpace=wrap;rounded=0;fontSize=18;fontStyle=1" vertex="1" parent="1">
          <mxGeometry x="810" y="440" width="110" height="30" as="geometry" />
        </mxCell>
        <mxCell id="QMcq5MqNsXWsQAmR-mkq-10" value="PA位数&lt;br&gt;(Physical Address)" style="text;html=1;strokeColor=none;fillColor=none;align=center;verticalAlign=middle;whiteSpace=wrap;rounded=0;fontSize=18;fontStyle=1" vertex="1" parent="1">
          <mxGeometry x="-40" y="430" width="190" height="50" as="geometry" />
        </mxCell>
        <mxCell id="QMcq5MqNsXWsQAmR-mkq-11" value="Cache总行数/块数" style="text;html=1;strokeColor=none;fillColor=none;align=center;verticalAlign=middle;whiteSpace=wrap;rounded=0;fontSize=18;fontStyle=1" vertex="1" parent="1">
          <mxGeometry x="-40" y="510" width="190" height="50" as="geometry" />
        </mxCell>
        <mxCell id="QMcq5MqNsXWsQAmR-mkq-12" value="Cache块大小" style="text;html=1;strokeColor=none;fillColor=none;align=center;verticalAlign=middle;whiteSpace=wrap;rounded=0;fontSize=18;fontStyle=1" vertex="1" parent="1">
          <mxGeometry x="-40" y="570" width="190" height="50" as="geometry" />
        </mxCell>
        <mxCell id="QMcq5MqNsXWsQAmR-mkq-13" value="Cache-主存的映射方式" style="text;html=1;strokeColor=none;fillColor=none;align=center;verticalAlign=middle;whiteSpace=wrap;rounded=0;fontSize=18;fontStyle=1" vertex="1" parent="1">
          <mxGeometry x="-40" y="640" width="190" height="50" as="geometry" />
        </mxCell>
        <mxCell id="QMcq5MqNsXWsQAmR-mkq-14" value="Cache写策略" style="text;html=1;strokeColor=none;fillColor=none;align=center;verticalAlign=middle;whiteSpace=wrap;rounded=0;fontSize=18;fontStyle=1" vertex="1" parent="1">
          <mxGeometry x="-40" y="770" width="190" height="50" as="geometry" />
        </mxCell>
        <mxCell id="QMcq5MqNsXWsQAmR-mkq-15" value="Cache替换算法" style="text;html=1;strokeColor=none;fillColor=none;align=center;verticalAlign=middle;whiteSpace=wrap;rounded=0;fontSize=18;fontStyle=1" vertex="1" parent="1">
          <mxGeometry x="-40" y="700" width="190" height="50" as="geometry" />
        </mxCell>
        <mxCell id="QMcq5MqNsXWsQAmR-mkq-16" value="" style="shape=table;startSize=0;container=1;collapsible=0;childLayout=tableLayout;fontSize=18;" vertex="1" parent="1">
          <mxGeometry x="397" y="680" width="430" height="40" as="geometry" />
        </mxCell>
        <mxCell id="QMcq5MqNsXWsQAmR-mkq-17" value="" style="shape=partialRectangle;collapsible=0;dropTarget=0;pointerEvents=0;fillColor=none;top=0;left=0;bottom=0;right=0;points=[[0,0.5],[1,0.5]];portConstraint=eastwest;fontSize=18;" vertex="1" parent="QMcq5MqNsXWsQAmR-mkq-16">
          <mxGeometry width="430" height="40" as="geometry" />
        </mxCell>
        <mxCell id="QMcq5MqNsXWsQAmR-mkq-18" value="Tag位" style="shape=partialRectangle;html=1;whiteSpace=wrap;connectable=0;overflow=hidden;fillColor=none;top=0;left=0;bottom=0;right=0;pointerEvents=1;fontSize=18;" vertex="1" parent="QMcq5MqNsXWsQAmR-mkq-17">
          <mxGeometry width="300" height="40" as="geometry">
            <mxRectangle width="300" height="40" as="alternateBounds" />
          </mxGeometry>
        </mxCell>
        <mxCell id="QMcq5MqNsXWsQAmR-mkq-19" value="块内地址" style="shape=partialRectangle;html=1;whiteSpace=wrap;connectable=0;overflow=hidden;fillColor=none;top=0;left=0;bottom=0;right=0;pointerEvents=1;fontSize=18;" vertex="1" parent="QMcq5MqNsXWsQAmR-mkq-17">
          <mxGeometry x="300" width="130" height="40" as="geometry">
            <mxRectangle width="130" height="40" as="alternateBounds" />
          </mxGeometry>
        </mxCell>
        <mxCell id="QMcq5MqNsXWsQAmR-mkq-24" value="" style="shape=table;startSize=0;container=1;collapsible=0;childLayout=tableLayout;fontSize=18;" vertex="1" parent="1">
          <mxGeometry x="397" y="790" width="433" height="40" as="geometry" />
        </mxCell>
        <mxCell id="QMcq5MqNsXWsQAmR-mkq-25" value="" style="shape=partialRectangle;collapsible=0;dropTarget=0;pointerEvents=0;fillColor=none;top=0;left=0;bottom=0;right=0;points=[[0,0.5],[1,0.5]];portConstraint=eastwest;fontSize=18;" vertex="1" parent="QMcq5MqNsXWsQAmR-mkq-24">
          <mxGeometry width="433" height="40" as="geometry" />
        </mxCell>
        <mxCell id="QMcq5MqNsXWsQAmR-mkq-26" value="Tag位" style="shape=partialRectangle;html=1;whiteSpace=wrap;connectable=0;overflow=hidden;fillColor=none;top=0;left=0;bottom=0;right=0;pointerEvents=1;fontSize=18;" vertex="1" parent="QMcq5MqNsXWsQAmR-mkq-25">
          <mxGeometry width="233" height="40" as="geometry">
            <mxRectangle width="233" height="40" as="alternateBounds" />
          </mxGeometry>
        </mxCell>
        <mxCell id="QMcq5MqNsXWsQAmR-mkq-27" value="" style="shape=partialRectangle;html=1;whiteSpace=wrap;connectable=0;overflow=hidden;fillColor=none;top=0;left=0;bottom=0;right=0;pointerEvents=1;fontSize=18;" vertex="1" parent="QMcq5MqNsXWsQAmR-mkq-25">
          <mxGeometry x="233" width="70" height="40" as="geometry">
            <mxRectangle width="70" height="40" as="alternateBounds" />
          </mxGeometry>
        </mxCell>
        <mxCell id="QMcq5MqNsXWsQAmR-mkq-28" value="块内地址" style="shape=partialRectangle;html=1;whiteSpace=wrap;connectable=0;overflow=hidden;fillColor=none;top=0;left=0;bottom=0;right=0;pointerEvents=1;fontSize=18;" vertex="1" parent="QMcq5MqNsXWsQAmR-mkq-25">
          <mxGeometry x="303" width="130" height="40" as="geometry">
            <mxRectangle width="130" height="40" as="alternateBounds" />
          </mxGeometry>
        </mxCell>
        <mxCell id="QMcq5MqNsXWsQAmR-mkq-29" value="行号" style="text;html=1;strokeColor=none;fillColor=none;align=center;verticalAlign=middle;whiteSpace=wrap;rounded=0;fontSize=18;fontStyle=1" vertex="1" parent="1">
          <mxGeometry x="558.5" y="900" width="110" height="30" as="geometry" />
        </mxCell>
        <mxCell id="QMcq5MqNsXWsQAmR-mkq-30" value="组号" style="text;html=1;strokeColor=none;fillColor=none;align=center;verticalAlign=middle;whiteSpace=wrap;rounded=0;fontSize=18;fontStyle=1" vertex="1" parent="1">
          <mxGeometry x="680" y="900" width="110" height="30" as="geometry" />
        </mxCell>
        <mxCell id="QMcq5MqNsXWsQAmR-mkq-33" value="" style="endArrow=classic;html=1;rounded=0;fontSize=18;entryX=0.5;entryY=0;entryDx=0;entryDy=0;exitX=0.572;exitY=1.106;exitDx=0;exitDy=0;exitPerimeter=0;" edge="1" parent="1" source="QMcq5MqNsXWsQAmR-mkq-25" target="QMcq5MqNsXWsQAmR-mkq-29">
          <mxGeometry width="50" height="50" relative="1" as="geometry">
            <mxPoint x="420" y="720" as="sourcePoint" />
            <mxPoint x="470" y="670" as="targetPoint" />
          </mxGeometry>
        </mxCell>
        <mxCell id="QMcq5MqNsXWsQAmR-mkq-34" value="" style="endArrow=classic;html=1;rounded=0;fontSize=18;entryX=0.336;entryY=-0.153;entryDx=0;entryDy=0;exitX=0.667;exitY=1.106;exitDx=0;exitDy=0;exitPerimeter=0;entryPerimeter=0;" edge="1" parent="1" source="QMcq5MqNsXWsQAmR-mkq-25" target="QMcq5MqNsXWsQAmR-mkq-30">
          <mxGeometry width="50" height="50" relative="1" as="geometry">
            <mxPoint x="654.6759999999999" y="844.24" as="sourcePoint" />
            <mxPoint x="623.5" y="909.9999999999998" as="targetPoint" />
          </mxGeometry>
        </mxCell>
        <mxCell id="QMcq5MqNsXWsQAmR-mkq-35" value="全相联映射" style="text;html=1;strokeColor=none;fillColor=none;align=center;verticalAlign=middle;whiteSpace=wrap;rounded=0;fontSize=18;fontStyle=1" vertex="1" parent="1">
          <mxGeometry x="920" y="685" width="110" height="30" as="geometry" />
        </mxCell>
        <mxCell id="QMcq5MqNsXWsQAmR-mkq-36" value="组相联映射" style="text;html=1;strokeColor=none;fillColor=none;align=center;verticalAlign=middle;whiteSpace=wrap;rounded=0;fontSize=18;fontStyle=1" vertex="1" parent="1">
          <mxGeometry x="920" y="800" width="110" height="30" as="geometry" />
        </mxCell>
        <mxCell id="QMcq5MqNsXWsQAmR-mkq-37" value="直接映射可以说是组相联特殊情况，一行一组" style="text;html=1;strokeColor=none;fillColor=none;align=center;verticalAlign=middle;whiteSpace=wrap;rounded=0;fontSize=18;fontStyle=1" vertex="1" parent="1">
          <mxGeometry x="830" y="870" width="370" height="30" as="geometry" />
        </mxCell>
      </root>
    </mxGraphModel>
  </diagram>
</mxfile>
